<mxfile host="app.diagrams.net" agent="Mozilla/5.0 (Windows NT 10.0; Win64; x64) AppleWebKit/537.36 (KHTML, like Gecko) Chrome/130.0.0.0 Safari/537.36" version="24.8.4">
  <diagram name="Page-1" id="R90nFdJ5sugYg3ODsmdf">
    <mxGraphModel>
      <root>
        <mxCell id="0" />
        <mxCell id="1" parent="0" />
        <mxCell id="2" value="Start" style="whiteSpace=wrap;strokeWidth=2;" vertex="1" parent="1">
          <mxGeometry x="325" y="8" width="95" height="49" as="geometry" />
        </mxCell>
        <mxCell id="3" value="Visit Website" style="rounded=1;arcSize=40;strokeWidth=2" vertex="1" parent="1">
          <mxGeometry x="311" y="107" width="123" height="49" as="geometry" />
        </mxCell>
        <mxCell id="4" value="Registered User?" style="rhombus;strokeWidth=2;whiteSpace=wrap;" vertex="1" parent="1">
          <mxGeometry x="289" y="205" width="167" height="167" as="geometry" />
        </mxCell>
        <mxCell id="5" value="Login" style="rounded=1;arcSize=40;strokeWidth=2" vertex="1" parent="1">
          <mxGeometry x="338" y="543" width="68" height="49" as="geometry" />
        </mxCell>
        <mxCell id="6" value="Buy or Rent?" style="rhombus;strokeWidth=2;whiteSpace=wrap;" vertex="1" parent="1">
          <mxGeometry x="304" y="642" width="137" height="137" as="geometry" />
        </mxCell>
        <mxCell id="7" value="Find Product" style="rounded=1;arcSize=40;strokeWidth=2" vertex="1" parent="1">
          <mxGeometry x="120" y="852" width="121" height="49" as="geometry" />
        </mxCell>
        <mxCell id="8" value="Find Rental" style="rounded=1;arcSize=40;strokeWidth=2" vertex="1" parent="1">
          <mxGeometry x="501" y="951" width="111" height="49" as="geometry" />
        </mxCell>
        <mxCell id="9" value="Add to Cart" style="rounded=1;arcSize=40;strokeWidth=2" vertex="1" parent="1">
          <mxGeometry x="124" y="951" width="113" height="49" as="geometry" />
        </mxCell>
        <mxCell id="10" value="Checkout" style="rounded=1;arcSize=40;strokeWidth=2" vertex="1" parent="1">
          <mxGeometry x="132" y="1049" width="97" height="49" as="geometry" />
        </mxCell>
        <mxCell id="11" value="Payment Successful?" style="rhombus;strokeWidth=2;whiteSpace=wrap;" vertex="1" parent="1">
          <mxGeometry x="83" y="1148" width="194" height="194" as="geometry" />
        </mxCell>
        <mxCell id="12" value="Confirmation Page" style="rounded=1;arcSize=40;strokeWidth=2" vertex="1" parent="1">
          <mxGeometry x="8" y="1415" width="162" height="49" as="geometry" />
        </mxCell>
        <mxCell id="13" value="Home Page" style="rounded=1;arcSize=40;strokeWidth=2" vertex="1" parent="1">
          <mxGeometry x="217" y="1514" width="109" height="49" as="geometry" />
        </mxCell>
        <mxCell id="14" value="Error Page" style="rounded=1;arcSize=40;strokeWidth=2" vertex="1" parent="1">
          <mxGeometry x="220" y="1415" width="104" height="49" as="geometry" />
        </mxCell>
        <mxCell id="15" value="Request Booking" style="rounded=1;arcSize=40;strokeWidth=2" vertex="1" parent="1">
          <mxGeometry x="483" y="1049" width="147" height="49" as="geometry" />
        </mxCell>
        <mxCell id="16" value="Booking Confirmed?" style="rhombus;strokeWidth=2;whiteSpace=wrap;" vertex="1" parent="1">
          <mxGeometry x="391" y="1150" width="190" height="190" as="geometry" />
        </mxCell>
        <mxCell id="17" value="Confirmation Email" style="rounded=1;arcSize=40;strokeWidth=2" vertex="1" parent="1">
          <mxGeometry x="374" y="1415" width="168" height="49" as="geometry" />
        </mxCell>
        <mxCell id="18" value="Error Message" style="rounded=1;arcSize=40;strokeWidth=2" vertex="1" parent="1">
          <mxGeometry x="592" y="1415" width="129" height="49" as="geometry" />
        </mxCell>
        <mxCell id="19" value="Register" style="rounded=1;arcSize=40;strokeWidth=2" vertex="1" parent="1">
          <mxGeometry x="375" y="445" width="88" height="49" as="geometry" />
        </mxCell>
        <mxCell id="20" value="End" style="rounded=1;arcSize=40;strokeWidth=2" vertex="1" parent="1">
          <mxGeometry x="244" y="1612" width="56" height="49" as="geometry" />
        </mxCell>
        <mxCell id="21" value="" style="curved=1;startArrow=none;endArrow=block;exitX=0.5;exitY=0.99;entryX=0.5;entryY=-0.01;" edge="1" parent="1" source="2" target="3">
          <mxGeometry relative="1" as="geometry">
            <Array as="points" />
          </mxGeometry>
        </mxCell>
        <mxCell id="22" value="" style="curved=1;startArrow=none;endArrow=block;exitX=0.5;exitY=0.99;entryX=0.5;entryY=0;" edge="1" parent="1" source="3" target="4">
          <mxGeometry relative="1" as="geometry">
            <Array as="points" />
          </mxGeometry>
        </mxCell>
        <mxCell id="23" value="Yes" style="curved=1;startArrow=none;endArrow=block;exitX=0.31;exitY=1;entryX=0.17;entryY=0.01;" edge="1" parent="1" source="4" target="5">
          <mxGeometry relative="1" as="geometry">
            <Array as="points">
              <mxPoint x="326" y="408" />
              <mxPoint x="326" y="518" />
            </Array>
          </mxGeometry>
        </mxCell>
        <mxCell id="24" value="" style="curved=1;startArrow=none;endArrow=block;exitX=0.51;exitY=1;entryX=0.5;entryY=0;" edge="1" parent="1" source="5" target="6">
          <mxGeometry relative="1" as="geometry">
            <Array as="points" />
          </mxGeometry>
        </mxCell>
        <mxCell id="25" value="Buy" style="curved=1;startArrow=none;endArrow=block;exitX=0;exitY=0.77;entryX=0.5;entryY=0;" edge="1" parent="1" source="6" target="7">
          <mxGeometry relative="1" as="geometry">
            <Array as="points">
              <mxPoint x="180" y="816" />
            </Array>
          </mxGeometry>
        </mxCell>
        <mxCell id="26" value="Rent" style="curved=1;startArrow=none;endArrow=block;exitX=1;exitY=0.79;entryX=0.5;entryY=-0.01;" edge="1" parent="1" source="6" target="8">
          <mxGeometry relative="1" as="geometry">
            <Array as="points">
              <mxPoint x="557" y="816" />
            </Array>
          </mxGeometry>
        </mxCell>
        <mxCell id="27" value="" style="curved=1;startArrow=none;endArrow=block;exitX=0.5;exitY=0.99;entryX=0.5;entryY=-0.01;" edge="1" parent="1" source="7" target="9">
          <mxGeometry relative="1" as="geometry">
            <Array as="points" />
          </mxGeometry>
        </mxCell>
        <mxCell id="28" value="" style="curved=1;startArrow=none;endArrow=block;exitX=0.5;exitY=0.99;entryX=0.5;entryY=0.01;" edge="1" parent="1" source="9" target="10">
          <mxGeometry relative="1" as="geometry">
            <Array as="points" />
          </mxGeometry>
        </mxCell>
        <mxCell id="29" value="" style="curved=1;startArrow=none;endArrow=block;exitX=0.5;exitY=1;entryX=0.5;entryY=0;" edge="1" parent="1" source="10" target="11">
          <mxGeometry relative="1" as="geometry">
            <Array as="points" />
          </mxGeometry>
        </mxCell>
        <mxCell id="30" value="Yes" style="curved=1;startArrow=none;endArrow=block;exitX=0.16;exitY=1;entryX=0.5;entryY=0;" edge="1" parent="1" source="11" target="12">
          <mxGeometry relative="1" as="geometry">
            <Array as="points">
              <mxPoint x="89" y="1379" />
            </Array>
          </mxGeometry>
        </mxCell>
        <mxCell id="31" value="" style="curved=1;startArrow=none;endArrow=block;exitX=0.5;exitY=0.99;entryX=0;entryY=0.19;" edge="1" parent="1" source="12" target="13">
          <mxGeometry relative="1" as="geometry">
            <Array as="points">
              <mxPoint x="89" y="1489" />
            </Array>
          </mxGeometry>
        </mxCell>
        <mxCell id="32" value="No" style="curved=1;startArrow=none;endArrow=block;exitX=0.84;exitY=1;entryX=0.5;entryY=0;" edge="1" parent="1" source="11" target="14">
          <mxGeometry relative="1" as="geometry">
            <Array as="points">
              <mxPoint x="272" y="1379" />
            </Array>
          </mxGeometry>
        </mxCell>
        <mxCell id="33" value="" style="curved=1;startArrow=none;endArrow=block;exitX=0.5;exitY=0.99;entryX=0.5;entryY=-0.01;" edge="1" parent="1" source="14" target="13">
          <mxGeometry relative="1" as="geometry">
            <Array as="points" />
          </mxGeometry>
        </mxCell>
        <mxCell id="34" value="" style="curved=1;startArrow=none;endArrow=block;exitX=0.5;exitY=0.99;entryX=0.5;entryY=0.01;" edge="1" parent="1" source="8" target="15">
          <mxGeometry relative="1" as="geometry">
            <Array as="points" />
          </mxGeometry>
        </mxCell>
        <mxCell id="35" value="" style="curved=1;startArrow=none;endArrow=block;exitX=0.26;exitY=1;entryX=0.5;entryY=0;" edge="1" parent="1" source="15" target="16">
          <mxGeometry relative="1" as="geometry">
            <Array as="points">
              <mxPoint x="486" y="1123" />
            </Array>
          </mxGeometry>
        </mxCell>
        <mxCell id="36" value="Yes" style="curved=1;startArrow=none;endArrow=block;exitX=0.39;exitY=1;entryX=0.5;entryY=0;" edge="1" parent="1" source="16" target="17">
          <mxGeometry relative="1" as="geometry">
            <Array as="points">
              <mxPoint x="458" y="1379" />
            </Array>
          </mxGeometry>
        </mxCell>
        <mxCell id="37" value="" style="curved=1;startArrow=none;endArrow=block;exitX=0.5;exitY=0.99;entryX=1;entryY=0.19;" edge="1" parent="1" source="17" target="13">
          <mxGeometry relative="1" as="geometry">
            <Array as="points">
              <mxPoint x="458" y="1489" />
            </Array>
          </mxGeometry>
        </mxCell>
        <mxCell id="38" value="No" style="curved=1;startArrow=none;endArrow=block;exitX=0.87;exitY=1;entryX=0.27;entryY=0;" edge="1" parent="1" source="16" target="18">
          <mxGeometry relative="1" as="geometry">
            <Array as="points">
              <mxPoint x="585" y="1379" />
            </Array>
          </mxGeometry>
        </mxCell>
        <mxCell id="39" value="" style="curved=1;startArrow=none;endArrow=block;exitX=0.54;exitY=0;entryX=0.89;entryY=1;" edge="1" parent="1" source="18" target="15">
          <mxGeometry relative="1" as="geometry">
            <Array as="points">
              <mxPoint x="672" y="1379" />
              <mxPoint x="672" y="1123" />
            </Array>
          </mxGeometry>
        </mxCell>
        <mxCell id="40" value="No" style="curved=1;startArrow=none;endArrow=block;exitX=0.69;exitY=1;entryX=0.5;entryY=-0.01;" edge="1" parent="1" source="4" target="19">
          <mxGeometry relative="1" as="geometry">
            <Array as="points">
              <mxPoint x="419" y="408" />
            </Array>
          </mxGeometry>
        </mxCell>
        <mxCell id="41" value="" style="curved=1;startArrow=none;endArrow=block;exitX=0.5;exitY=0.99;entryX=0.84;entryY=0.01;" edge="1" parent="1" source="19" target="5">
          <mxGeometry relative="1" as="geometry">
            <Array as="points">
              <mxPoint x="419" y="518" />
            </Array>
          </mxGeometry>
        </mxCell>
        <mxCell id="42" value="" style="curved=1;startArrow=none;endArrow=block;exitX=0.5;exitY=0.99;entryX=0.49;entryY=0.01;" edge="1" parent="1" source="13" target="20">
          <mxGeometry relative="1" as="geometry">
            <Array as="points" />
          </mxGeometry>
        </mxCell>
      </root>
    </mxGraphModel>
  </diagram>
</mxfile>
